<svg xmlns="http://www.w3.org/2000/svg" viewBox="0 0 64 64">
  <rect width="64" height="64" rx="16" fill="#f2eee5"/>
  <circle cx="32" cy="32" r="24" fill="#cbd5c4"/>
  <circle cx="32" cy="32" r="18" fill="#fffdf8"/>
  <g fill="#554b40" stroke="#554b40" stroke-linecap="round">
    <ellipse cx="33" cy="33" rx="10" ry="6"/>
    <path d="M25 30 17 27 12 30 13 35 21 37 27 35Z" stroke="none"/>
    <path d="M42 33c9-4 13 6 8 12-4 5-11 2-9-3 1-3 4-3 5-1" fill="none" stroke-width="4"/>
    <path d="M28 30 24 23 19 21M37 30 40 23 45 21M28 36 23 42 18 44M38 36 42 42 47 44" fill="none" stroke-width="2.5"/>
    <path d="m19 21-3-2m3 2-1 3m27-3 3-2m-3 2 1 3M18 44l-3 2m3-2-1-3m30 3 3 2m-3-2 1-3" fill="none" stroke-width="1.5"/>
  </g>
  <circle cx="19" cy="31" r="2" fill="#fffdf8"/>
  <circle cx="19.5" cy="31" r=".9" fill="#74806e"/>
</svg>
